<svg width="46" height="46" viewBox="0 0 46 46" fill="none" xmlns="http://www.w3.org/2000/svg">
<path d="M23.657 20.3304L22.8204 21.167L23.4392 22.1755L31.3102 35.0034C29.3607 36.3348 27.1083 37.1732 24.7466 37.4365C21.9528 37.748 19.1262 37.2413 16.6104 35.9774C14.0945 34.7134 11.998 32.7468 10.5757 30.3166C9.1535 27.8863 8.46693 25.0974 8.5989 22.2889C8.73086 19.4804 9.67564 16.7731 11.318 14.4955C12.9604 12.218 15.2299 10.468 17.8512 9.45794C20.4724 8.44791 23.3329 8.22132 26.0852 8.80632C28.3464 9.28693 30.4545 10.2983 32.2391 11.7483L23.657 20.3304Z" stroke="black" stroke-width="3"/>
<line y1="-1.5" x2="19.4174" y2="-1.5" transform="matrix(-0.999999 -0.00115744 -0.00115744 -0.999999 32.796 10.8825)" stroke="black" stroke-width="3"/>
<line y1="-1.5" x2="22.6537" y2="-1.5" transform="matrix(0.00115744 0.999999 -0.999999 -0.00115744 12.1656 11.2633)" stroke="black" stroke-width="3"/>
<g filter="url(#filter0_d)">
<line y1="-1.5" x2="25.8899" y2="-1.5" transform="matrix(-0.00115744 -0.999999 0.999999 0.00115744 23.1183 37.5703)" stroke="black" stroke-width="3"/>
</g>
<defs>
<filter id="filter0_d" x="16.0883" y="11.677" width="11.03" height="33.8933" filterUnits="userSpaceOnUse" color-interpolation-filters="sRGB">
<feFlood flood-opacity="0" result="BackgroundImageFix"/>
<feColorMatrix in="SourceAlpha" type="matrix" values="0 0 0 0 0 0 0 0 0 0 0 0 0 0 0 0 0 0 127 0" result="hardAlpha"/>
<feOffset dy="4"/>
<feGaussianBlur stdDeviation="2"/>
<feComposite in2="hardAlpha" operator="out"/>
<feColorMatrix type="matrix" values="0 0 0 0 0 0 0 0 0 0 0 0 0 0 0 0 0 0 0.25 0"/>
<feBlend mode="normal" in2="BackgroundImageFix" result="effect1_dropShadow"/>
<feBlend mode="normal" in="SourceGraphic" in2="effect1_dropShadow" result="shape"/>
</filter>
</defs>
</svg>
