<svg width="103" height="102" viewBox="0 0 103 102" fill="none" xmlns="http://www.w3.org/2000/svg">
<path d="M52.9337 45.2822L51.2604 46.9555L52.498 48.9725L70.3936 78.1379C65.8898 81.2859 60.6556 83.2659 55.1617 83.8784C48.8034 84.5874 42.3707 83.4342 36.6452 80.5578C30.9197 77.6814 26.1486 73.206 22.912 67.6754C19.6754 62.1448 18.1128 55.7979 18.4132 49.4061C18.7135 43.0144 20.8637 36.8528 24.6016 31.6693C28.3395 26.4859 33.5048 22.5028 39.4705 20.2041C45.4363 17.9054 51.9463 17.3897 58.21 18.7211C63.4921 19.8438 68.407 22.2393 72.5356 25.6803L52.9337 45.2822Z" stroke="black" stroke-opacity="0.99" stroke-width="6"/>
<line y1="-3" x2="43.6892" y2="-3" transform="matrix(-0.999999 -0.00115731 -0.00115731 -0.999999 72.2511 23.5223)" stroke="black" stroke-opacity="0.99" stroke-width="6"/>
<line y1="-3" x2="50.9707" y2="-3" transform="matrix(0.00115731 0.999999 -0.999999 -0.00115731 26.8128 24.6161)" stroke="black" stroke-opacity="0.99" stroke-width="6"/>
<g filter="url(#filter0_d)">
<line x1="48.2454" y1="83.3872" x2="48.389" y2="25.7872" stroke="black" stroke-opacity="0.99" stroke-width="6" shape-rendering="crispEdges"/>
</g>
<defs>
<filter id="filter0_d" x="45.2454" y="25.7798" width="6.14354" height="57.6149" filterUnits="userSpaceOnUse" color-interpolation-filters="sRGB">
<feFlood flood-opacity="0" result="BackgroundImageFix"/>
<feColorMatrix in="SourceAlpha" type="matrix" values="0 0 0 0 0 0 0 0 0 0 0 0 0 0 0 0 0 0 127 0" result="hardAlpha"/>
<feOffset/>
<feComposite in2="hardAlpha" operator="out"/>
<feColorMatrix type="matrix" values="0 0 0 0 1 0 0 0 0 1 0 0 0 0 1 0 0 0 0.25 0"/>
<feBlend mode="normal" in2="BackgroundImageFix" result="effect1_dropShadow"/>
<feBlend mode="normal" in="SourceGraphic" in2="effect1_dropShadow" result="shape"/>
</filter>
</defs>
</svg>
