<svg width="97" height="98" viewBox="0 0 97 98" fill="none" xmlns="http://www.w3.org/2000/svg">
<path d="M49.9 43.481L48.2267 45.1542L49.4643 47.1712L66.2833 74.5822C62.0818 77.4873 57.2122 79.3156 52.1035 79.8852C46.1306 80.5511 40.0876 79.4678 34.709 76.7657C29.3304 74.0636 24.8484 69.8593 21.8078 64.6637C18.7673 59.4682 17.2994 53.5058 17.5816 47.5014C17.8637 41.497 19.8836 35.7089 23.3949 30.8397C26.9062 25.9705 31.7584 22.2289 37.3625 20.0695C42.9667 17.9101 49.0822 17.4257 54.9663 18.6763C59.8686 19.7183 64.4342 21.9273 68.2834 25.0975L49.9 43.481Z" stroke="white" stroke-opacity="0.99" stroke-width="6"/>
<line y1="-3" x2="41.262" y2="-3" transform="matrix(-0.999999 -0.00115731 -0.00115731 -0.999999 69.1877 23.2716)" stroke="white" stroke-opacity="0.99" stroke-width="6"/>
<line y1="-3" x2="48.139" y2="-3" transform="matrix(0.00115731 0.999999 -0.999999 -0.00115731 25.3481 24.0808)" stroke="white" stroke-opacity="0.99" stroke-width="6"/>
<g filter="url(#filter0_d)">
<line x1="45.4233" y1="79.5865" x2="45.5589" y2="25.1865" stroke="white" stroke-opacity="0.99" stroke-width="6" shape-rendering="crispEdges"/>
</g>
<defs>
<filter id="filter0_d" x="38.4233" y="25.179" width="14.1356" height="62.4149" filterUnits="userSpaceOnUse" color-interpolation-filters="sRGB">
<feFlood flood-opacity="0" result="BackgroundImageFix"/>
<feColorMatrix in="SourceAlpha" type="matrix" values="0 0 0 0 0 0 0 0 0 0 0 0 0 0 0 0 0 0 127 0" result="hardAlpha"/>
<feOffset dy="4"/>
<feGaussianBlur stdDeviation="2"/>
<feComposite in2="hardAlpha" operator="out"/>
<feColorMatrix type="matrix" values="0 0 0 0 1 0 0 0 0 1 0 0 0 0 1 0 0 0 0.25 0"/>
<feBlend mode="normal" in2="BackgroundImageFix" result="effect1_dropShadow"/>
<feBlend mode="normal" in="SourceGraphic" in2="effect1_dropShadow" result="shape"/>
</filter>
</defs>
</svg>
