<svg width="72" height="72" viewBox="0 0 72 72" fill="none" xmlns="http://www.w3.org/2000/svg">
<path d="M37.3088 32.436L36.4722 33.2726L37.091 34.2811L49.8024 54.9978C46.4967 57.4258 42.6037 58.9496 38.5082 59.4062C33.9804 59.911 29.3998 59.0898 25.323 57.0417C21.2462 54.9936 17.8491 51.807 15.5445 47.869C13.2399 43.931 12.1272 39.4116 12.3411 34.8599C12.5549 30.3084 14.0861 25.9204 16.7481 22.2289C19.4101 18.5375 23.0887 15.7009 27.3372 14.0639C31.5857 12.4268 36.2215 12.0597 40.6817 13.0077C44.6518 13.8516 48.3305 15.7051 51.3668 18.3781L37.3088 32.436Z" stroke="black" stroke-width="3"/>
<line y1="-1.5" x2="30.3397" y2="-1.5" transform="matrix(-0.999999 -0.00115744 -0.00115744 -0.999999 50.9919 17.0771)" stroke="black" stroke-width="3"/>
<line y1="-1.5" x2="35.3964" y2="-1.5" transform="matrix(0.00115744 0.999999 -0.999999 -0.00115744 18.7568 17.6721)" stroke="black" stroke-width="3"/>
<line y1="-1.5" x2="40.453" y2="-1.5" transform="matrix(-0.00115744 -0.999999 0.999999 0.00115744 35.8704 58.7768)" stroke="black" stroke-width="3"/>
</svg>
